<svg width="49" height="42" viewBox="0 0 49 42" fill="none" xmlns="http://www.w3.org/2000/svg">
<g id="Group 7">
<g id="Group 3">
<mask id="mask0_1_1427" style="mask-type:luminance" maskUnits="userSpaceOnUse" x="0" y="0" width="28" height="42">
<path id="Clip 2" fill-rule="evenodd" clip-rule="evenodd" d="M0.000152588 0.101562H27.8614V41.4552H0.000152588V0.101562Z" fill="white"/>
</mask>
<g mask="url(#mask0_1_1427)">
<path id="Fill 1" fill-rule="evenodd" clip-rule="evenodd" d="M10.6132 17.8259L0.000152588 41.4551H10.6376L27.1205 17.7098C27.5294 17.1208 27.8614 16.0634 27.8614 15.3489V1.39576C27.8614 0.681003 27.2759 0.101318 26.5532 0.101318H12.4527C11.7297 0.101318 11.1442 0.681003 11.1442 1.39576V15.3489C11.1442 16.0634 10.9065 17.1723 10.6132 17.8259Z" fill="#EEECDD"/>
</g>
</g>
<g id="Group 6">
<mask id="mask1_1_1427" style="mask-type:luminance" maskUnits="userSpaceOnUse" x="20" y="0" width="29" height="42">
<path id="Clip 5" fill-rule="evenodd" clip-rule="evenodd" d="M20.84 0.101562H48.6821V41.4552H20.84V0.101562Z" fill="white"/>
</mask>
<g mask="url(#mask1_1_1427)">
<path id="Fill 4" fill-rule="evenodd" clip-rule="evenodd" d="M31.4461 17.8259L20.84 41.4551H31.4702L47.9418 17.7098C48.3503 17.1208 48.6821 16.0634 48.6821 15.3489V1.39576C48.6821 0.681003 48.0974 0.101318 47.3749 0.101318H33.2841C32.5615 0.101318 31.9768 0.681003 31.9768 1.39576V15.3489C31.9768 16.0634 31.7388 17.1723 31.4461 17.8259Z" fill="#EEECDD"/>
</g>
</g>
</g>
</svg>
