<svg width="40" height="40" viewBox="0 0 40 40" fill="none" xmlns="http://www.w3.org/2000/svg">
<g clip-path="url(#clip0_107_1101)">
<mask id="mask0_107_1101" style="mask-type:luminance" maskUnits="userSpaceOnUse" x="0" y="0" width="40" height="40">
<path d="M34.8178 0H5.18219C2.32014 0 0 2.32014 0 5.18219V34.8178C0 37.6799 2.32014 40 5.18219 40H34.8178C37.6799 40 40 37.6799 40 34.8178V5.18219C40 2.32014 37.6799 0 34.8178 0Z" fill="white"/>
</mask>
<g mask="url(#mask0_107_1101)">
<path d="M34.8178 0H5.18219C2.32014 0 0 2.32014 0 5.18219V34.8178C0 37.6799 2.32014 40 5.18219 40H34.8178C37.6799 40 40 37.6799 40 34.8178V5.18219C40 2.32014 37.6799 0 34.8178 0Z" fill="white"/>
<path fill-rule="evenodd" clip-rule="evenodd" d="M8.06642 29.9675L17.3589 35.327C19.0015 36.2755 21.0296 36.2755 22.6645 35.327L31.9569 29.9675C33.5995 29.0189 34.6097 27.2684 34.6097 25.3713V14.6445C34.6097 12.7475 33.5995 10.997 31.9569 10.0484L22.6645 4.68887C21.0219 3.74035 18.9937 3.74035 17.3589 4.68887L8.07414 10.0484C6.43157 10.997 5.42135 12.7475 5.42135 14.6445V25.3713C5.42135 27.2684 6.43157 29.0189 8.07414 29.9675H8.06642ZM23.1657 3.80975L32.4582 9.1693C34.4092 10.2952 35.6122 12.385 35.6122 14.6368V25.3636C35.6122 27.6154 34.4092 29.7053 32.4582 30.8312L23.1657 36.1907C21.2147 37.3166 18.8087 37.3166 16.8576 36.1907L7.56517 30.8312C5.61414 29.7053 4.41113 27.6154 4.41113 25.3636V14.6368C4.41113 12.385 5.61414 10.3029 7.56517 9.1693L16.8576 3.80975C18.8087 2.68386 21.2147 2.68386 23.1657 3.80975Z" fill="#E27626"/>
<path d="M8.08154 11.7061C13.0555 8.64463 16.0013 11.1972 16.0013 11.1972L16.0245 11.2357L14.3511 12.1997C12.6776 13.1636 10.6109 13.1636 8.93753 12.1997L8.08925 11.7138L8.08154 11.7061Z" fill="url(#paint0_linear_107_1101)"/>
<path d="M7.29514 27.1216C7.18718 27.245 7.12549 27.4069 7.12549 27.5766C7.12549 27.8542 7.28743 28.1009 7.52649 28.2166L9.36185 29.25L17.3279 33.8461C19.0013 34.81 21.068 34.81 22.7415 33.8461L30.7075 29.25C31.1702 28.9878 31.5789 28.6562 31.9337 28.2783C27.245 31.2627 24.0216 28.7873 24.0216 28.7873L16.6107 24.5151C11.737 21.9471 8.44417 25.5176 7.28743 27.1139" fill="url(#paint1_linear_107_1101)"/>
<path d="M31.9337 28.2785C26.9597 31.34 24.0139 28.7875 24.0139 28.7875L23.9907 28.7489L25.6641 27.785C27.3375 26.821 29.4043 26.821 31.0777 27.785L31.9954 28.3171" fill="url(#paint2_linear_107_1101)"/>
<path d="M32.7591 12.8552C32.8671 12.7318 32.9288 12.5699 32.9288 12.4002C32.9288 12.1226 32.7668 11.8758 32.5278 11.7601L30.6924 10.7268L22.7264 6.13068C21.0529 5.16673 18.9862 5.16673 17.3128 6.13068L9.34675 10.7268C8.88405 10.989 8.47534 11.3206 8.12061 11.6984C12.8093 8.71406 16.0327 11.1895 16.0327 11.1895L23.4435 15.4617C28.3173 18.0297 31.6101 14.4592 32.7668 12.8629" fill="url(#paint3_linear_107_1101)"/>
<path d="M32.2423 21.8007C31.9492 21.8007 31.7102 21.7467 31.5251 21.6311C31.3323 21.5154 31.2012 21.3612 31.1241 21.1684C31.047 20.9679 31.0239 20.7365 31.0701 20.4743C31.1087 20.2353 31.1858 20.0348 31.3015 19.8651C31.4171 19.6955 31.5637 19.5644 31.741 19.4718C31.9184 19.3793 32.1266 19.333 32.358 19.333C32.5893 19.333 32.7821 19.387 32.9363 19.4872C33.0906 19.5875 33.1985 19.7263 33.2602 19.9037C33.3219 20.081 33.3373 20.2815 33.2988 20.5129L33.2679 20.6671H31.6176L31.6716 20.3201H32.8207L32.7281 20.3972C32.759 20.1967 32.7435 20.0502 32.6741 19.9499C32.6047 19.8497 32.4968 19.8034 32.3348 19.8034C32.2192 19.8034 32.1266 19.8266 32.0418 19.8805C31.9647 19.9268 31.8953 20.0039 31.849 20.0965C31.8027 20.189 31.7642 20.2892 31.7487 20.3972L31.7179 20.5823C31.6871 20.7982 31.7179 20.9679 31.8182 21.0835C31.9184 21.1992 32.0881 21.2609 32.3425 21.2609C32.4582 21.2609 32.5662 21.2455 32.6664 21.2146C32.7744 21.1838 32.8823 21.1298 32.9903 21.0527L33.1754 21.5154C33.0443 21.6079 32.9055 21.6773 32.7435 21.7236C32.5816 21.7699 32.4119 21.7853 32.2423 21.7853V21.8007Z" fill="#DC6302"/>
<path d="M29.1034 21.7467L29.381 20.0039C29.3965 19.9037 29.4119 19.7957 29.4196 19.6877C29.435 19.5798 29.4427 19.4795 29.4427 19.3716H30.1213L30.0905 20.0656H29.9671C30.0211 19.896 30.0982 19.7571 30.183 19.6492C30.2756 19.5412 30.3758 19.4564 30.4915 19.4101C30.6072 19.3561 30.7306 19.333 30.8617 19.333C30.9079 19.333 30.9465 19.333 30.985 19.3407C31.0236 19.3407 31.0622 19.3484 31.1007 19.3561L31.0005 19.9731C30.9465 19.9499 30.8925 19.9345 30.8462 19.9268C30.8 19.9268 30.746 19.9191 30.6766 19.9191C30.5609 19.9191 30.4607 19.9422 30.3604 19.9962C30.2679 20.0425 30.1907 20.1119 30.1213 20.2121C30.0597 20.3047 30.0134 20.4203 29.998 20.5669L29.8052 21.7467H29.0957H29.1034Z" fill="#DC6302"/>
<path d="M27.1369 21.8007C26.9209 21.8007 26.7359 21.7467 26.5893 21.6388C26.4428 21.5308 26.3349 21.3766 26.2732 21.1838C26.2115 20.9833 26.2038 20.7519 26.2423 20.4897C26.304 20.1042 26.4428 19.8188 26.6665 19.626C26.8901 19.4333 27.1523 19.333 27.453 19.333C27.6458 19.333 27.8078 19.3793 27.9389 19.4718C28.0777 19.5566 28.1548 19.68 28.1856 19.8266L28.1394 19.842L28.2628 19.3793H28.9414C28.9182 19.4795 28.8951 19.5875 28.8643 19.6955C28.8411 19.7957 28.8257 19.896 28.8026 19.9962L28.5249 21.7467H27.8232L27.9003 21.284H27.9774C27.9003 21.4383 27.7923 21.5617 27.6535 21.6542C27.5147 21.7467 27.3451 21.793 27.1369 21.793V21.8007ZM27.3836 21.2686C27.5456 21.2686 27.6767 21.2146 27.7923 21.1067C27.908 20.991 27.9774 20.8291 28.016 20.5977C28.0545 20.3432 28.0314 20.1581 27.9543 20.0425C27.8695 19.9268 27.7461 19.8728 27.5764 19.8728C27.4145 19.8728 27.2834 19.9268 27.1677 20.0348C27.052 20.1427 26.9826 20.3124 26.9441 20.536C26.9055 20.7905 26.9287 20.9756 27.0058 21.099C27.0906 21.2146 27.214 21.2686 27.3836 21.2686Z" fill="#DC6302"/>
<path d="M24.762 21.8005C24.3765 21.8005 24.068 21.7234 23.8289 21.5691C23.5899 21.4149 23.4202 21.199 23.3277 20.9368C23.2351 20.6669 23.212 20.3661 23.266 20.0191C23.32 19.6798 23.4356 19.3868 23.5976 19.1477C23.7672 18.9086 23.9832 18.7236 24.2454 18.5925C24.5153 18.4614 24.816 18.3997 25.163 18.4074C25.379 18.4074 25.5717 18.4382 25.7414 18.4999C25.9188 18.5539 26.0576 18.631 26.1733 18.7313L25.9265 19.3096C25.7954 19.2094 25.672 19.1477 25.5563 19.1014C25.4407 19.0629 25.2941 19.0397 25.1322 19.0397C24.8391 19.0397 24.5924 19.1246 24.3996 19.3019C24.2068 19.4793 24.0834 19.7261 24.0294 20.0499C23.9986 20.2736 24.0063 20.4664 24.0526 20.636C24.0988 20.798 24.1914 20.9291 24.3302 21.0216C24.469 21.1141 24.6464 21.1604 24.8623 21.1604C25.0088 21.1604 25.1553 21.1373 25.2941 21.091C25.4407 21.0447 25.5872 20.9676 25.7337 20.852L25.9265 21.4226C25.7722 21.5383 25.5949 21.6308 25.3867 21.7002C25.1862 21.7619 24.978 21.8005 24.762 21.8005Z" fill="#DC6302"/>
<path d="M21.7467 21.8007C21.4536 21.8007 21.2146 21.7467 21.0295 21.6311C20.8367 21.5154 20.7056 21.3612 20.6285 21.1684C20.5514 20.9679 20.5283 20.7365 20.5745 20.4743C20.6131 20.2353 20.6902 20.0348 20.8059 19.8651C20.9215 19.6955 21.0681 19.5644 21.2454 19.4718C21.4228 19.3793 21.631 19.333 21.8624 19.333C22.0937 19.333 22.2865 19.387 22.4407 19.4872C22.595 19.5875 22.7029 19.7263 22.7646 19.9037C22.8263 20.081 22.8417 20.2815 22.8032 20.5129L22.7723 20.6671H21.122L21.176 20.3201H22.3251L22.2325 20.3972C22.2634 20.1967 22.2479 20.0502 22.1785 19.9499C22.1091 19.8497 22.0012 19.8034 21.8392 19.8034C21.7235 19.8034 21.631 19.8266 21.5462 19.8805C21.4691 19.9268 21.3997 20.0039 21.3534 20.0965C21.3071 20.189 21.2686 20.2892 21.2531 20.3972L21.2223 20.5823C21.1914 20.7982 21.2223 20.9679 21.3225 21.0835C21.4228 21.1992 21.5925 21.2609 21.8469 21.2609C21.9626 21.2609 22.0706 21.2455 22.1708 21.2146C22.2788 21.1838 22.3867 21.1298 22.4947 21.0527L22.6798 21.5154C22.5487 21.6079 22.4099 21.6773 22.2479 21.7236C22.086 21.7699 21.9163 21.7853 21.7467 21.7853V21.8007Z" fill="#DC6302"/>
<path d="M17.8447 21.7466L18.3923 18.3149H19.094L18.7701 20.3662H18.7778L19.788 19.3791H20.6517L19.3408 20.6361V20.3816L20.3356 21.7466H19.5027L18.7238 20.721H18.7161L18.5542 21.7466H17.8524H17.8447Z" fill="#DC6302"/>
<path d="M15.8781 21.8007C15.6621 21.8007 15.4771 21.7467 15.3306 21.6388C15.184 21.5308 15.0761 21.3766 15.0144 21.1838C14.9527 20.9833 14.945 20.7519 14.9835 20.4897C15.0452 20.1042 15.184 19.8188 15.4077 19.626C15.6313 19.4333 15.8935 19.333 16.1942 19.333C16.387 19.333 16.549 19.3793 16.6801 19.4718C16.8189 19.5566 16.896 19.68 16.9268 19.8266L16.8806 19.842L17.004 19.3793H17.6826C17.6594 19.4795 17.6363 19.5875 17.6055 19.6955C17.5823 19.7957 17.5669 19.896 17.5438 19.9962L17.2662 21.7467H16.5644L16.6415 21.284H16.7186C16.6415 21.4383 16.5336 21.5617 16.3947 21.6542C16.2559 21.7467 16.0863 21.793 15.8781 21.793V21.8007ZM16.1248 21.2686C16.2868 21.2686 16.4179 21.2146 16.5336 21.1067C16.6492 20.991 16.7186 20.8291 16.7572 20.5977C16.7958 20.3432 16.7726 20.1581 16.6955 20.0425C16.6184 19.9268 16.4873 19.8728 16.3176 19.8728C16.1557 19.8728 16.0246 19.9268 15.9089 20.0348C15.7932 20.1427 15.7238 20.3124 15.6853 20.536C15.6467 20.7905 15.6699 20.9756 15.747 21.099C15.8318 21.2146 15.9552 21.2686 16.1248 21.2686Z" fill="#DC6302"/>
<path d="M13.1404 21.7469L13.5722 19.0479H12.5234L12.616 18.4541H15.4307L15.3382 19.0479H14.2894L13.8575 21.7469H13.1327H13.1404Z" fill="#DC6302"/>
<path d="M8.41347 21.7466L8.93786 18.4614H9.66275L9.2309 21.1373H10.7115L10.619 21.7466H8.40576H8.41347Z" fill="#DC6302"/>
<path d="M7.01758 21.7466L7.54197 18.4614H8.26686L7.74247 21.7466H7.01758Z" fill="#DC6302"/>
</g>
</g>
<defs>
<linearGradient id="paint0_linear_107_1101" x1="9.3848" y1="13.9194" x2="13.2406" y2="10.3797" gradientUnits="userSpaceOnUse">
<stop stop-color="#C34427"/>
<stop offset="1" stop-color="#6E0100"/>
</linearGradient>
<linearGradient id="paint1_linear_107_1101" x1="18.9551" y1="24.5151" x2="20.5128" y2="33.7844" gradientUnits="userSpaceOnUse">
<stop stop-color="#FDBC00"/>
<stop offset="0.27" stop-color="#F47F02"/>
<stop offset="1" stop-color="#BE4101"/>
</linearGradient>
<linearGradient id="paint2_linear_107_1101" x1="30.6535" y1="26.1038" x2="26.8054" y2="29.6435" gradientUnits="userSpaceOnUse">
<stop stop-color="#C34427"/>
<stop offset="1" stop-color="#6E0100"/>
</linearGradient>
<linearGradient id="paint3_linear_107_1101" x1="19.5723" y1="6.36202" x2="21.1378" y2="15.6314" gradientUnits="userSpaceOnUse">
<stop stop-color="#FDBC00"/>
<stop offset="0.27" stop-color="#F47F02"/>
<stop offset="1" stop-color="#BE4101"/>
</linearGradient>
<clipPath id="clip0_107_1101">
<rect width="40" height="40" fill="white"/>
</clipPath>
</defs>
</svg>
