<svg width="40" height="40" viewBox="0 0 40 40" fill="none" xmlns="http://www.w3.org/2000/svg">
<rect width="40" height="40" rx="8" fill="white"/>
<path d="M29.1267 30.6733L27.32 34.0933C25.8934 36.4866 18.1867 31.9066 13.7267 24.1199C13.7 24.0799 13.68 24.0333 13.6534 23.9933C13.6267 23.9533 13.6067 23.9133 13.58 23.8666C9.12004 16.0799 9.06004 7.11326 11.8534 7.09326L15.72 7.26659C16.0467 7.28659 16.34 7.48659 16.5334 7.81326C16.5334 7.81326 16.5334 7.83326 16.54 7.83993C16.8334 8.30659 16.7334 8.51326 16.82 10.0866C16.92 10.9399 17.0334 11.8466 17.1534 12.4733C17.2667 13.0799 16.9534 13.6666 16.44 13.8133L15.4267 14.0799C15.0867 14.1733 14.7867 14.3999 14.6134 14.7133C14.0867 15.6466 15.5467 18.8666 16.5 20.7533C16.7734 21.2866 17.0067 21.7199 17.1534 21.9799C17.3 22.2399 17.56 22.6599 17.88 23.1666C19.02 24.9466 21.0667 27.8333 22.1334 27.8466C22.4867 27.8533 22.84 27.7133 23.0934 27.4666L23.8334 26.7333C24.2134 26.3666 24.8867 26.3866 25.3467 26.7933C25.8267 27.2133 26.5534 27.7733 27.24 28.2866C28.56 29.1599 28.7867 29.1733 29.04 29.6666C29.04 29.6733 29.06 29.6866 29.06 29.6866C29.2467 30.0199 29.2734 30.3733 29.1267 30.6666V30.6733Z" stroke="#0B4B7F" stroke-width="2" stroke-linecap="round" stroke-linejoin="round"/>
<path d="M23.3132 14.1998C23.4532 14.3131 23.6265 14.3798 23.8132 14.3865C25.0599 14.4331 26.2599 15.0665 26.9799 16.1998C27.6999 17.3331 27.7665 18.6865 27.2865 19.8331C27.2132 19.9998 27.1999 20.1865 27.2399 20.3665C27.2399 20.3731 27.2399 20.3798 27.2399 20.3865C27.4332 21.1265 28.4599 21.2131 28.7599 20.5065C29.4599 18.8731 29.3732 16.9331 28.3465 15.3265C27.3199 13.7131 25.5999 12.8131 23.8265 12.7598C23.0599 12.7331 22.6999 13.7065 23.2932 14.1931C23.2932 14.1931 23.3065 14.1998 23.3132 14.2065V14.1998Z" fill="#EC6625"/>
<path d="M21.0466 16.8596C21.1466 16.9463 21.2733 16.9863 21.4066 16.9929C22.2999 17.0263 23.1666 17.4863 23.6799 18.2929C24.1933 19.0996 24.2466 20.0796 23.8999 20.9063C23.8466 21.0263 23.8333 21.1596 23.8666 21.2863V21.2996C24.0066 21.8329 24.7466 21.8929 24.9599 21.3863C25.4666 20.2129 25.3999 18.8196 24.6599 17.6596C23.9199 16.4996 22.6866 15.8529 21.4133 15.8129C20.8599 15.7929 20.6066 16.4929 21.0333 16.8396C21.0333 16.8396 21.0399 16.8463 21.0466 16.8529V16.8596Z" fill="#EC6625"/>
</svg>
