<svg width="41" height="40" viewBox="0 0 41 40" fill="none" xmlns="http://www.w3.org/2000/svg">
<rect x="0.200195" width="40" height="40" rx="8" fill="white"/>
<path d="M21.5799 6.44629C14.4199 6.44629 8.61328 12.253 8.61328 19.413C8.61328 22.313 9.57995 24.9863 11.1933 27.1463L9.94661 31.9796L14.5999 30.3263C16.6133 31.6196 19.0066 32.3796 21.5799 32.3796C28.7399 32.3796 34.5466 26.573 34.5466 19.413C34.5466 12.253 28.7399 6.44629 21.5799 6.44629Z" stroke="#0B4B7F" stroke-width="2" stroke-linecap="round" stroke-linejoin="round"/>
<path d="M27.4467 25.2399L26.3601 27.2999C25.5001 28.7399 20.8667 25.9866 18.1801 21.2999C18.1667 21.2732 18.1534 21.2466 18.1401 21.2199C18.1267 21.1932 18.1134 21.1732 18.0934 21.1466C15.4134 16.4666 15.3734 11.0666 17.0534 11.0532L19.3801 11.1599C19.5801 11.1732 19.7534 11.2932 19.8667 11.4932C19.8667 11.4932 19.8667 11.5066 19.8667 11.5132C20.0467 11.7932 19.9867 11.9199 20.0334 12.8666C20.0934 13.3799 20.1601 13.9266 20.2334 14.3066C20.3001 14.6732 20.1134 15.0266 19.8067 15.1132L19.2001 15.2732C18.9934 15.3266 18.8134 15.4666 18.7134 15.6532C18.4001 16.2132 19.2734 18.1532 19.8467 19.2866C20.0134 19.6066 20.1534 19.8666 20.2401 20.0266C20.3267 20.1799 20.4801 20.4332 20.6801 20.7399C21.3667 21.8132 22.5934 23.5466 23.2401 23.5599C23.4534 23.5599 23.6667 23.4799 23.8134 23.3332L24.2601 22.8932C24.4934 22.6732 24.8934 22.6866 25.1734 22.9266C25.4601 23.1799 25.9001 23.5132 26.3134 23.8266C27.1067 24.3532 27.2467 24.3599 27.3934 24.6532L27.4067 24.6666C27.5201 24.8666 27.5334 25.0799 27.4467 25.2532V25.2399Z" fill="#EC6625"/>
</svg>
