<svg width="41" height="40" viewBox="0 0 41 40" fill="none" xmlns="http://www.w3.org/2000/svg">
<rect x="0.600098" width="40" height="40" rx="8" fill="white"/>
<path d="M20.7532 32.6535C13.4532 32.6535 7.5332 26.7335 7.5332 19.4335C7.5332 12.1335 13.4532 6.22021 20.7532 6.22021C28.0532 6.22021 33.9732 12.1402 33.9732 19.4402" stroke="#004A80" stroke-width="2" stroke-linecap="round" stroke-linejoin="round"/>
<path d="M22.8268 32.6535H20.7534V6.22021" stroke="#004A80" stroke-width="2" stroke-linecap="round" stroke-linejoin="round"/>
<path d="M16.4332 6.97363C16.4332 6.97363 7.6265 19.4336 17.4865 32.2203" stroke="#004A80" stroke-width="2" stroke-linecap="round" stroke-linejoin="round"/>
<path d="M25.0801 6.97363C25.0801 6.97363 28.8001 12.2403 28.6934 19.4336" stroke="#004A80" stroke-width="2" stroke-linecap="round" stroke-linejoin="round"/>
<path d="M33.02 15.1133C33.02 15.1133 20.74 6.30668 8.1333 16.1667" stroke="#004A80" stroke-width="2" stroke-linecap="round" stroke-linejoin="round"/>
<path d="M8.1333 22.7065C12.5533 26.1599 16.9333 27.3265 20.7533 27.3732H21.7866" stroke="#004A80" stroke-width="2" stroke-linecap="round" stroke-linejoin="round"/>
<path d="M7.54004 19.4336H33.9734V20.8736" stroke="#004A80" stroke-width="2" stroke-linecap="round" stroke-linejoin="round"/>
<path d="M28.6934 19.4331V20.4331" stroke="#004A80" stroke-width="2" stroke-linecap="round" stroke-linejoin="round"/>
<path d="M29.5403 27.9934L28.7536 31.0934C28.567 31.8334 27.527 31.88 27.2803 31.1534L24.6603 23.5334C24.4536 22.9267 25.0336 22.3467 25.6403 22.5534L33.2603 25.1734C33.9803 25.42 33.9403 26.46 33.2003 26.6467L30.1003 27.4334C29.827 27.5 29.6136 27.7134 29.547 27.9867L29.5403 27.9934Z" fill="#EC6625"/>
</svg>
