<svg width="40" height="40" viewBox="0 0 40 40" fill="none" xmlns="http://www.w3.org/2000/svg">
<g id="Assistance 1" clip-path="url(#clip0_167_300)">
<g id="Layer 1">
<g id="Group">
<g id="Group_2">
<g id="Group_3">
<g id="Group_4">
<g id="Group_5">
<path id="Vector" d="M39.1478 38.5556L38.7302 35.8462C38.2273 32.5471 35.8578 29.8462 32.6616 28.9061L24.5474 26.53V21.624" stroke="#034A7F" stroke-width="2" stroke-linecap="round" stroke-linejoin="round"/>
<path id="Vector_2" d="M15.453 21.6326V26.5386L7.33879 28.9146C4.14255 29.8462 1.78158 32.5556 1.27018 35.8548L0.852539 38.5642" stroke="#034A7F" stroke-width="2" stroke-linecap="round" stroke-linejoin="round"/>
</g>
<path id="Vector_3" d="M24.5474 26.5386L24.4025 26.8377C23.874 27.9061 23.0643 28.6582 22.1353 29.0941L24.3172 31.2052L26.7549 27.4531" stroke="#034A7F" stroke-width="2" stroke-linecap="round" stroke-linejoin="round"/>
<path id="Vector_4" d="M15.4528 26.5386C15.8619 27.5129 16.5012 28.2565 17.2683 28.7693L14.7027 30.8292L13.3901 27.5129" stroke="#034A7F" stroke-width="2" stroke-linecap="round" stroke-linejoin="round"/>
<path id="Vector_5" d="M8.30176 38.5642V36.5984" stroke="#034A7F" stroke-width="2" stroke-linecap="round" stroke-linejoin="round"/>
<path id="Vector_6" d="M30.5562 38.5642V36.5984" stroke="#034A7F" stroke-width="2" stroke-linecap="round" stroke-linejoin="round"/>
</g>
<g id="Group_6">
<path id="Vector_7" d="M21.3084 19.1965C20.78 19.3589 20.2174 19.3675 19.689 19.2222" stroke="#004A80" stroke-width="2" stroke-linecap="round" stroke-linejoin="round"/>
<path id="Vector_8" d="M17.439 13.0171V13.3846" stroke="#004A80" stroke-width="2" stroke-linecap="round" stroke-linejoin="round"/>
<path id="Vector_9" d="M22.9619 13.0171V13.3846" stroke="#004A80" stroke-width="2" stroke-linecap="round" stroke-linejoin="round"/>
</g>
</g>
<g id="Group_7">
<path id="Vector_10" d="M16.6464 22.265L15.6236 21.5727C14.5497 20.8462 13.8423 19.6838 13.6888 18.3932L12.9217 11.8633C12.8365 11.1453 12.9217 10.4188 13.1689 9.73507L13.3991 9.10259C13.3991 9.10259 13.5184 9.15387 13.74 9.22225C16.1009 9.99148 18.675 9.66669 20.8058 8.39319L23.2861 6.90601L27.0108 9.70088C27.5307 10.094 27.8205 10.718 27.7779 11.359L27.4626 16.5727C27.4199 17.2479 27.2154 17.9146 26.8659 18.4957L26.1755 19.6325" stroke="#034A7F" stroke-width="2" stroke-linecap="round" stroke-linejoin="round"/>
<g id="Group_8">
<path id="Vector_11" d="M10.2538 12.2649H10.5266V16.9572H10.2538C9.17136 16.9572 8.29346 16.0769 8.29346 14.9914V14.2307C8.29346 13.1452 9.17136 12.2649 10.2538 12.2649Z" stroke="#EC6625" stroke-width="2" stroke-linecap="round" stroke-linejoin="round"/>
<path id="Vector_12" d="M30.045 16.9573H29.7723V12.265H30.045C31.1275 12.265 32.0054 13.1453 32.0054 14.2308V14.9915C32.0054 16.0769 31.1275 16.9573 30.045 16.9573Z" stroke="#EC6625" stroke-width="2" stroke-linecap="round" stroke-linejoin="round"/>
<g id="Group_9">
<path id="Vector_13" d="M10.5264 12.265V10.5129C10.5264 5.17952 14.8392 0.863281 20.1492 0.863281C25.4678 0.863281 29.7721 5.18807 29.7721 10.5129V17.2137C29.7721 20.4445 27.1639 23.0599 23.9421 23.0599H22.067" stroke="#EC6625" stroke-width="2" stroke-linecap="round" stroke-linejoin="round"/>
<path id="Vector_14" d="M21.0099 22.094H20.1235C19.5351 22.094 19.0581 22.5723 19.0581 23.1624V23.3077C19.0581 23.8977 19.5351 24.376 20.1235 24.376H21.0099C21.5984 24.376 22.0754 23.8977 22.0754 23.3077V23.1624C22.0754 22.5723 21.5984 22.094 21.0099 22.094Z" stroke="#EC6625" stroke-width="2" stroke-linecap="round" stroke-linejoin="round"/>
</g>
</g>
</g>
</g>
<path id="Vector_15" d="M17.2686 28.7607L20.0045 30.5727L22.1354 29.0941" stroke="#034A7F" stroke-width="2" stroke-linecap="round" stroke-linejoin="round"/>
<path id="Vector_16" d="M20.0044 30.5728V39.1454" stroke="#034A7F" stroke-width="2" stroke-linecap="round" stroke-linejoin="round"/>
</g>
</g>
</g>
<defs>
<clipPath id="clip0_167_300">
<rect width="40" height="40" fill="white"/>
</clipPath>
</defs>
</svg>
