<svg width="237" height="132" viewBox="0 0 237 132" fill="none" xmlns="http://www.w3.org/2000/svg">
<path d="M149.422 127.849H124.854V125.035H149.422C159.385 125.035 167.491 116.93 167.491 106.967V95.197H170.304V106.967C170.304 118.482 160.937 127.849 149.422 127.849Z" fill="url(#paint0_linear_180_25)"/>
<path d="M66.311 80.9597L69.7473 80.8378L69.2884 68.1013H65.8477L66.311 80.9597Z" fill="url(#paint1_linear_180_25)"/>
<path d="M69.4887 63.417C72.5415 43.6792 82.5534 34.0597 82.6532 33.9644L80.3032 31.4526C79.8576 31.8694 69.3357 41.899 66.09 62.8915C65.8927 64.1641 65.7974 65.5098 65.804 66.891L65.8484 68.1014H69.2892L69.2448 66.8466C69.2404 65.6561 69.3224 64.5033 69.4909 63.4192L69.4887 63.417Z" fill="url(#paint2_linear_180_25)"/>
<path d="M72.1783 77.5046H67.8729C66.5827 77.5046 65.4254 78.3005 64.9687 79.5087C63.5941 83.1512 61.3816 91.1922 64.8623 98.8252C65.3722 99.9426 66.474 100.672 67.7022 100.672H72.1783V77.5068V77.5046Z" fill="url(#paint3_linear_180_25)"/>
<path d="M79.7694 66.9531L72.1762 68.986C70.8238 69.3474 69.8838 70.5734 69.8838 71.9723V105.819C69.8838 107.249 70.8637 108.49 72.2538 108.825L83.1237 111.434L79.7694 66.9531Z" fill="#EC6625"/>
<path d="M82.2198 64.3132L80.9738 64.7588C80.2511 65.016 79.77 65.701 79.77 66.4681V110.493C79.77 111.18 80.158 111.807 80.7721 112.116L82.0513 112.756C82.4016 112.931 82.8007 112.989 83.1864 112.918V64.2489C82.8627 64.1846 82.528 64.2023 82.2176 64.3154L82.2198 64.3132Z" fill="url(#paint4_linear_180_25)"/>
<path d="M88.2711 65.5397L83.2784 64.2649C83.2496 64.2583 83.2185 64.2538 83.1875 64.2494V112.919L88.0804 112.03C89.3995 111.79 90.3595 110.64 90.3595 109.298V68.2311C90.3595 66.963 89.4993 65.8545 88.2711 65.5419V65.5397Z" fill="url(#paint5_linear_180_25)"/>
<path d="M170.171 80.9597L166.735 80.8378L167.194 68.1013H170.635L170.171 80.9597Z" fill="url(#paint6_linear_180_25)"/>
<path d="M166.995 63.4168C163.942 43.679 153.93 34.0596 153.83 33.9642L156.18 31.4524C156.626 31.8692 167.148 41.8988 170.393 62.8913C170.591 64.1639 170.686 65.5096 170.679 66.8908L170.635 68.1012H167.194L167.238 66.8464C167.243 65.6559 167.161 64.5031 166.992 63.419L166.995 63.4168Z" fill="url(#paint7_linear_180_25)"/>
<path d="M164.306 77.5046H168.611C169.901 77.5046 171.059 78.3005 171.515 79.5088C172.89 83.1513 175.102 91.1923 171.622 98.8253C171.112 99.9427 170.01 100.672 168.782 100.672H164.306V77.5069V77.5046Z" fill="url(#paint8_linear_180_25)"/>
<path d="M156.716 66.9531L164.309 68.986C165.661 69.3474 166.601 70.5734 166.601 71.9723V105.819C166.601 107.249 165.621 108.49 164.231 108.825L153.361 111.434L156.716 66.9531Z" fill="#EC6625"/>
<path d="M154.265 64.3123L155.511 64.7579C156.234 65.015 156.715 65.7001 156.715 66.4672V110.492C156.715 111.179 156.327 111.807 155.713 112.115L154.433 112.755C154.083 112.931 153.684 112.988 153.298 112.917V64.248C153.622 64.1837 153.957 64.2014 154.267 64.3145L154.265 64.3123Z" fill="url(#paint9_linear_180_25)"/>
<path d="M148.215 65.5388L153.208 64.264C153.237 64.2573 153.268 64.2529 153.299 64.2485V112.918L148.406 112.029C147.087 111.789 146.127 110.639 146.127 109.297V68.2302C146.127 66.9621 146.987 65.8536 148.215 65.541V65.5388Z" fill="url(#paint10_linear_180_25)"/>
<path d="M157.309 31.4385C156.819 30.5916 156.249 29.7935 155.597 29.0596C152.99 26.1244 145.71 19.081 132.561 14.4209C127.967 12.7915 123.118 12 118.243 12C113.368 12 108.519 12.7915 103.924 14.4209C90.7747 19.081 83.494 26.1244 80.8869 29.0596C80.2373 29.7912 79.6675 30.5894 79.1753 31.4385L77.8252 33.7707L80.6496 36.5951L84.3565 34.3006C84.8597 34.0212 85.3608 33.7485 85.8596 33.4825C105.604 22.9607 129.284 22.5617 149.206 32.742C150.17 33.2342 151.143 33.753 152.128 34.3006L155.835 36.5951L158.659 33.7707L157.309 31.4385Z" fill="#EC6625"/>
<path d="M128.995 120.88H115.436C113.258 120.88 111.492 122.645 111.492 124.824V128.056C111.492 130.234 113.258 132 115.436 132H128.995C131.174 132 132.939 130.234 132.939 128.056V124.824C132.939 122.645 131.174 120.88 128.995 120.88Z" fill="url(#paint11_linear_180_25)"/>
<defs>
<linearGradient id="paint0_linear_180_25" x1="131.695" y1="85.316" x2="174.057" y2="155.215" gradientUnits="userSpaceOnUse">
<stop stop-color="#011B26"/>
<stop offset="0.47" stop-color="#00415C"/>
<stop offset="0.99" stop-color="#00709D"/>
</linearGradient>
<linearGradient id="paint1_linear_180_25" x1="66.597" y1="57.8322" x2="68.2752" y2="81.1326" gradientUnits="userSpaceOnUse">
<stop stop-color="#011B26"/>
<stop offset="0.47" stop-color="#00415C"/>
<stop offset="0.99" stop-color="#00709D"/>
</linearGradient>
<linearGradient id="paint2_linear_180_25" x1="80.4872" y1="10.9034" x2="64.9529" y2="106.222" gradientUnits="userSpaceOnUse">
<stop stop-color="#011B26"/>
<stop offset="0.47" stop-color="#00415C"/>
<stop offset="0.99" stop-color="#00709D"/>
</linearGradient>
<linearGradient id="paint3_linear_180_25" x1="68.0215" y1="82.5571" x2="67.1768" y2="107.004" gradientUnits="userSpaceOnUse">
<stop stop-color="#011B26"/>
<stop offset="0.47" stop-color="#00415C"/>
<stop offset="0.99" stop-color="#00709D"/>
</linearGradient>
<linearGradient id="paint4_linear_180_25" x1="79.77" y1="88.578" x2="90.3606" y2="88.578" gradientUnits="userSpaceOnUse">
<stop offset="0.01" stop-color="#C13606"/>
<stop offset="0.99" stop-color="#EC6625"/>
</linearGradient>
<linearGradient id="paint5_linear_180_25" x1="87.1737" y1="75.2323" x2="85.409" y2="126.245" gradientUnits="userSpaceOnUse">
<stop stop-color="#011B26"/>
<stop offset="0.47" stop-color="#00415C"/>
<stop offset="0.99" stop-color="#00709D"/>
</linearGradient>
<linearGradient id="paint6_linear_180_25" x1="169.885" y1="57.8322" x2="168.207" y2="81.1326" gradientUnits="userSpaceOnUse">
<stop stop-color="#011B26"/>
<stop offset="0.47" stop-color="#00415C"/>
<stop offset="0.99" stop-color="#00709D"/>
</linearGradient>
<linearGradient id="paint7_linear_180_25" x1="155.998" y1="10.9032" x2="171.53" y2="106.222" gradientUnits="userSpaceOnUse">
<stop stop-color="#011B26"/>
<stop offset="0.47" stop-color="#00415C"/>
<stop offset="0.99" stop-color="#00709D"/>
</linearGradient>
<linearGradient id="paint8_linear_180_25" x1="168.463" y1="82.5571" x2="169.309" y2="107.004" gradientUnits="userSpaceOnUse">
<stop stop-color="#011B26"/>
<stop offset="0.47" stop-color="#00415C"/>
<stop offset="0.99" stop-color="#00709D"/>
</linearGradient>
<linearGradient id="paint9_linear_180_25" x1="156.715" y1="88.5771" x2="146.124" y2="88.5771" gradientUnits="userSpaceOnUse">
<stop offset="0.01" stop-color="#C13606"/>
<stop offset="0.99" stop-color="#EC6625"/>
</linearGradient>
<linearGradient id="paint10_linear_180_25" x1="149.311" y1="75.2314" x2="151.075" y2="126.244" gradientUnits="userSpaceOnUse">
<stop stop-color="#011B26"/>
<stop offset="0.47" stop-color="#00415C"/>
<stop offset="0.99" stop-color="#00709D"/>
</linearGradient>
<linearGradient id="paint11_linear_180_25" x1="122.327" y1="123.232" x2="121.905" y2="135.383" gradientUnits="userSpaceOnUse">
<stop stop-color="#011B26"/>
<stop offset="0.47" stop-color="#00415C"/>
<stop offset="0.99" stop-color="#00709D"/>
</linearGradient>
</defs>
</svg>
