<svg width="277" height="300" viewBox="0 0 277 300" fill="none" xmlns="http://www.w3.org/2000/svg">
<path d="M138.249 17.0618C203.166 17.0618 255.871 69.7667 255.871 134.684V268.401H20.626V134.684C20.626 69.7667 73.3309 17.0618 138.249 17.0618Z" fill="url(#paint0_linear_107_1009)"/>
<mask id="mask0_107_1009" style="mask-type:luminance" maskUnits="userSpaceOnUse" x="20" y="17" width="236" height="252">
<path d="M138.249 17.0618C203.166 17.0618 255.871 69.7667 255.871 134.684V268.401H20.626V134.684C20.626 69.7667 73.3309 17.0618 138.249 17.0618Z" fill="white"/>
</mask>
<g mask="url(#mask0_107_1009)">
<path d="M64.6371 248.019C62.0226 250.262 60.9009 306.984 60.9009 306.984L62.3936 348.408L223.602 340.194L222.851 240.927L64.628 248.019H64.6371Z" fill="white"/>
<path d="M159.671 152.117L108.73 150.814L89.1353 249.891C89.1353 249.891 114.411 257.617 125.33 261.091C137.643 265.008 141.94 267.062 169.74 253.438C190.248 243.387 192.881 244.292 192.881 244.292L163.588 151.556L159.671 152.117Z" fill="#E5B48F"/>
<path d="M146.87 153.881C146.87 153.881 126.642 163.497 106.739 147.784L95.1328 138.366L106.812 186.286C106.812 186.286 167.46 164.474 146.87 153.872V153.881Z" fill="#D5886F"/>
<path d="M135.227 263.733L136.819 249.892L138.981 264.004C138.981 264.004 136.512 263.995 135.227 263.733Z" fill="#D5886F"/>
<path d="M204.604 183.499L202.922 180.034L205.835 179.365L206.169 179.51L206.776 181.4C206.776 181.4 220.888 185.164 225.746 186.964C233.119 189.687 242.31 191.451 261.109 273.494C261.109 273.494 216.464 273.268 205.147 284.295C193.83 295.323 204.604 183.499 204.604 183.499Z" fill="white"/>
<path d="M65.8131 182.902C65.8131 182.902 57.9788 180.568 44.9157 192.98C44.9157 192.98 39.3159 199.883 35.2088 211.643C31.1017 223.394 20.2188 282.486 20.2188 282.486C20.2188 282.486 45.2866 270.789 66.184 285.345L68.328 286.557C68.328 286.557 112.828 151.004 65.8131 182.911V182.902Z" fill="white"/>
<path d="M109.29 150.941L110.783 190.872C110.783 190.872 111.905 195.721 111.905 206.55C111.905 217.378 105.174 224.263 107.101 235.453C110.195 253.438 65.5235 260.485 70.481 281.925C70.481 281.925 60.4665 266.121 67.8665 251.321C76.1803 234.712 75.8003 227.764 76.0808 224.082C76.3974 219.93 63.7685 227.818 63.7685 235.281C63.7685 242.745 57.4269 223.711 67.1247 214.384C76.8316 205.057 80.1879 196.472 80.1879 196.472C80.1879 196.472 82.8023 186.023 82.0515 182.667C81.3006 179.311 75.7099 202.823 76.4517 205.808C77.2025 208.793 63.0176 200.208 64.8812 181.925C66.7448 163.642 72.3446 164.384 75.7008 153.935C79.0571 143.487 77.1935 75.7555 103.872 58.9652C103.872 58.9652 126.452 43.6676 144.364 47.7656C162.276 51.8727 173.095 60.6388 183.173 83.0289C193.251 105.419 205.002 146.653 205.002 146.653C205.002 146.653 206.124 154.867 204.071 159.155C202.017 163.443 203.139 165.126 205.934 169.043C208.73 172.96 208.178 179.863 206.495 182.106C204.812 184.35 208.359 183.97 209.29 193.306C210.222 202.633 203.691 203.384 204.062 209.535C204.433 215.696 203.501 219.984 205.364 227.257C207.228 234.531 210.032 232.486 213.199 240.881C216.374 249.276 217.116 253.754 212.828 256.559C208.54 259.354 200.325 262.9 202.75 270.183C205.174 277.456 210.964 280.442 211.145 282.685C211.335 284.929 209.281 289.958 209.281 289.958C209.281 289.958 213.199 284.73 206.486 281.192C199.765 277.646 188.013 276.714 185.028 269.993C182.042 263.271 182.042 259.354 185.589 253.573C189.135 247.793 172.526 240.881 171.033 239.949C169.54 239.018 153.121 231.183 157.228 208.603C161.335 186.023 160.087 185.833 161.398 178.75C162.701 171.657 161.145 152.072 161.145 152.072L109.272 150.95L109.29 150.941Z" fill="#0F1827"/>
<path d="M177.863 119.324C177.411 116.953 176.497 114.855 175.312 113.136C175.023 86.2133 160.91 64.547 135.535 66.293C109.472 68.0842 98.1003 82.1696 94.8073 105.383C91.1797 106.93 88.52 111.616 88.52 117.234C88.52 123.612 91.9396 128.804 96.3362 129.528C98.5978 154.487 116.89 163.072 134.766 163.072C151.574 163.072 167.758 157.346 172.164 132.966C176.542 131.627 179.085 125.747 177.872 119.324H177.863Z" fill="#E5B48F"/>
<path d="M117.966 108.278C119.565 108.278 120.861 106.856 120.861 105.102C120.861 103.349 119.565 101.927 117.966 101.927C116.367 101.927 115.071 103.349 115.071 105.102C115.071 106.856 116.367 108.278 117.966 108.278Z" fill="#0E1627"/>
<path d="M155.844 110.331C157.443 110.331 158.739 108.909 158.739 107.156C158.739 105.402 157.443 103.98 155.844 103.98C154.245 103.98 152.949 105.402 152.949 107.156C152.949 108.909 154.245 110.331 155.844 110.331Z" fill="#0E1627"/>
<path d="M150 98.2904C150 98.2904 162.303 94.4909 167.315 99.2403C167.315 99.2403 164.411 90.6552 157.834 91.9941C151.836 93.2244 150 98.2904 150 98.2904Z" fill="#0E1627"/>
<path d="M122.725 94.9341C122.725 94.9341 110.548 91.1527 105.392 95.1331C105.392 95.1331 108.576 87.715 115.098 89.1353C121.051 90.429 122.725 94.9341 122.725 94.9341Z" fill="#0E1627"/>
<path d="M137.932 115.732C139.226 116.899 140.031 118.5 140.031 120.264C140.031 123.666 137.054 126.425 133.273 126.696C134.34 127.429 135.643 127.872 137.072 127.872C140.655 127.872 143.559 125.14 143.559 121.766C143.559 118.672 141.107 116.139 137.941 115.741L137.932 115.732Z" fill="#D5886F"/>
<path d="M118.057 133.481C118.057 133.481 145.721 136.837 151.085 135.073C151.085 135.073 149.909 144.961 138.845 146.309C127.782 147.648 118.31 140.863 118.057 133.481Z" fill="white"/>
<path d="M94.9339 116.6C94.2554 115.696 93.0251 115.325 91.9395 115.895C91.0258 116.374 90.5102 117.451 90.7182 118.464C90.8359 119.061 91.1615 119.541 91.5867 119.875C92.03 120.219 92.3104 120.708 92.4642 121.25C92.5095 121.413 92.5728 121.567 92.6723 121.721C93.0703 122.39 93.8845 122.752 94.6535 122.598C94.8887 122.553 95.0877 122.444 95.2777 122.327C94.952 121.522 94.7258 120.599 94.6535 119.604C94.5811 118.518 94.6987 117.496 94.952 116.591L94.9339 116.6Z" fill="#D48069"/>
<path d="M173.973 122.019C174.416 121.44 175.203 121.196 175.9 121.567C176.488 121.875 176.823 122.571 176.687 123.222C176.605 123.611 176.406 123.919 176.126 124.136C175.846 124.362 175.665 124.679 175.565 125.023C175.538 125.122 175.493 125.231 175.429 125.33C175.176 125.765 174.642 126 174.154 125.9C174 125.873 173.873 125.801 173.756 125.719C173.964 125.195 174.118 124.607 174.163 123.964C174.208 123.259 174.136 122.607 173.973 122.028V122.019Z" fill="#D48069"/>
<path d="M66.9349 285.906C66.9349 285.906 47.1593 266.872 20.2912 282.359C20.2912 282.359 18.7442 294.265 15.198 325.611C11.9051 354.759 20.7525 359.273 23.8645 362.276C30.7127 368.88 113.959 368.564 141.578 357.554C169.197 346.544 166.021 350.091 166.021 350.091C166.021 350.091 213.597 354.94 217.523 353.266C221.44 351.583 236.928 360.168 236.928 360.168L250.733 366.139C250.733 366.139 258.947 365.578 250.986 358.612C243.025 351.647 225.357 344.771 225.357 344.771C225.357 344.771 219.197 340.203 230.306 340.483C241.406 340.764 246.915 342.347 246.915 342.347L260.539 347.847C260.539 347.847 264.827 345.884 261.842 342.998C258.856 340.103 244.952 332.92 244.952 332.92C244.952 332.92 238.42 330.586 228.442 330.957C218.464 331.328 229.654 325.828 234.693 326.009C239.732 326.199 249.71 326.479 249.71 326.479C249.71 326.479 259.508 338.421 262.493 335.996C265.478 333.572 263.615 330.306 262.213 328.533C260.81 326.76 250.271 318.274 250.271 318.274L227.04 317.804C227.04 317.804 240.193 311.923 240.474 311.743C240.754 311.562 247.467 309.598 251.013 310.44C254.559 311.281 259.969 313.516 259.969 313.516C259.969 313.516 263.705 310.53 261.462 308.477C259.218 306.423 248.77 300.172 243.55 300.733C238.33 301.294 217.984 308.386 217.984 308.386L183.092 319.676C183.092 319.676 114.646 325.05 105.753 324.607C104.179 324.525 66.8806 321.54 66.8806 321.54L67.3782 286.213L66.944 285.906H66.9349Z" fill="url(#paint1_linear_107_1009)"/>
<path d="M204.378 234.178C204.378 234.178 182.35 222.372 182.513 201.276C182.513 201.276 188.194 219.387 204.378 234.178Z" fill="#090A0C"/>
<path d="M169.785 75.2127C163.452 59.5351 138.981 55.0752 138.981 55.0752H130.179C130.179 55.0752 105.708 59.5351 99.3758 75.2127C93.0432 90.8903 91.6953 99.792 91.6953 99.792L95.3411 98.4712L100.896 81.491C102.406 76.8682 105.256 72.8063 109.101 69.83C114.167 65.9129 121.965 61.2901 131.256 60.5664H137.923C147.214 61.2901 155.021 65.9039 160.078 69.83C163.923 72.8063 166.772 76.8682 168.283 81.491L173.838 98.4712L177.483 99.792C177.483 99.792 176.135 90.8903 169.803 75.2127H169.785Z" fill="#DA6E2E"/>
<path d="M95.8294 97.2681C95.8294 97.2681 94.0925 115.651 96.8426 133.481L94.78 133.156C87.9861 132.088 82.9834 126.226 82.9834 119.351V111.724C82.9834 105.844 86.6653 100.597 92.1927 98.5889L95.8294 97.2681Z" fill="#DA6E2E"/>
<path d="M134.675 147.404L134.467 145.549L166.853 141.849C171.413 141.324 175.221 137.977 176.325 133.517L178.08 126.389L179.889 126.841L178.134 133.97C176.85 139.18 172.399 143.098 167.061 143.704L134.675 147.404Z" fill="#DA6E2E"/>
<path d="M173.078 97.2681C173.078 97.2681 174.815 115.651 172.064 133.481L174.127 133.156C180.921 132.088 185.924 126.226 185.924 119.351V111.724C185.924 105.844 182.242 100.597 176.714 98.5889L173.078 97.2681Z" fill="#DA6E2E"/>
<path d="M136.52 141.831H129.102C126.624 141.831 124.615 143.84 124.615 146.318V146.327C124.615 148.805 126.624 150.814 129.102 150.814H136.52C138.999 150.814 141.007 148.805 141.007 146.327V146.318C141.007 143.84 138.999 141.831 136.52 141.831Z" fill="#0E1627"/>
</g>
<defs>
<linearGradient id="paint0_linear_107_1009" x1="11.5523" y1="-97.5303" x2="179.112" y2="281.527" gradientUnits="userSpaceOnUse">
<stop offset="0.2" stop-color="white"/>
<stop offset="0.6" stop-color="#B8E8F8"/>
<stop offset="1" stop-color="#8FCDF0"/>
</linearGradient>
<linearGradient id="paint1_linear_107_1009" x1="-1.60136" y1="257.102" x2="121.132" y2="323.476" gradientUnits="userSpaceOnUse">
<stop stop-color="#D5886F"/>
<stop offset="0.37" stop-color="#DD9F80"/>
<stop offset="0.77" stop-color="#E5B48F"/>
</linearGradient>
</defs>
</svg>
