<svg width="277" height="300" viewBox="0 0 277 300" fill="none" xmlns="http://www.w3.org/2000/svg">
<path d="M138.249 17.0616C203.166 17.0616 255.871 69.7666 255.871 134.684V268.401H20.626V134.684C20.626 69.7666 73.3309 17.0616 138.249 17.0616Z" fill="url(#paint0_linear_107_934)"/>
<mask id="mask0_107_934" style="mask-type:luminance" maskUnits="userSpaceOnUse" x="20" y="17" width="236" height="252">
<path d="M138.249 17.062C203.166 17.062 255.871 69.7669 255.871 134.685V268.401H20.626V134.685C20.626 69.7669 73.3309 17.062 138.249 17.062Z" fill="white"/>
</mask>
<g mask="url(#mask0_107_934)">
<path d="M205.582 202.805H102.968L86.1141 185.951C69.7581 173.558 77.6918 148.273 77.6918 148.273L88.231 80.6863L112.403 48.4084L140.683 39.7057L177.828 61.0192C192.519 85.2548 198.146 136.368 198.146 157.346C198.146 178.325 205.582 202.787 205.582 202.787V202.805Z" fill="#070E1D"/>
<path d="M185.463 110.042C185.463 110.042 183.418 123.666 174.562 124.344L179.845 102.208L185.463 105.446V110.042Z" fill="url(#paint1_linear_107_934)"/>
<path d="M92.9985 102.208C92.9985 102.208 90.7821 117.026 102.362 119.405L98.6164 96.2463L92.9985 102.208Z" fill="url(#paint2_linear_107_934)"/>
<path d="M116.98 160.567C115.65 161.987 104.233 166.257 100.823 184.214L180.504 190.764C180.504 190.764 171.847 163.407 160.702 162.267L116.98 160.567Z" fill="#070E1D"/>
<path d="M110.331 131.12V165.316C110.331 165.316 108.621 177.855 100.072 186.593L97.4126 213.19C97.4126 213.19 148.317 232.758 180.233 212.24L178.334 181.654C178.334 181.654 166.365 176.335 165.605 165.886C164.845 155.437 165.225 132.64 165.225 132.64L110.331 131.12Z" fill="#ECBA9B"/>
<path d="M165.614 165.877C164.854 155.428 165.234 132.631 165.234 132.631L117.731 131.319C120.997 151.14 133.589 179.302 178.37 182.161L178.343 181.636C178.343 181.636 166.374 176.317 165.614 165.868V165.877Z" fill="#D88C74"/>
<path d="M182.522 67.1074C180.622 56.2787 173.973 50.1995 173.973 50.1995C166.383 37.2901 139.397 35.0013 139.397 35.0013C139.397 35.0013 112.412 37.2901 104.822 50.1995C104.822 50.1995 98.1723 56.2787 96.2726 67.1074C94.3728 77.936 96.2726 95.2239 96.2726 95.2239L101.809 124.652C102.904 130.478 105.735 135.843 109.924 140.031L121.657 151.765C124.38 154.487 127.827 156.405 131.599 157.22C133.87 157.708 136.557 158.052 139.388 157.907C142.229 158.043 144.916 157.708 147.177 157.22C150.95 156.405 154.387 154.497 157.119 151.765L168.853 140.031C173.041 135.843 175.873 130.478 176.967 124.652L182.504 95.2239C182.504 95.2239 184.404 77.936 182.504 67.1074H182.522Z" fill="#ECBA9B"/>
<path d="M148.634 87.1454L146.816 89.6151C146.816 89.6151 152.434 86.2136 160.612 89.1085C159.689 88.4933 157.798 84.2686 151.801 85.2094C150.534 85.4085 149.403 86.1231 148.643 87.1544L148.634 87.1454Z" fill="#070E1D"/>
<path d="M115.768 87.5703L113.95 90.04C113.95 90.04 119.568 86.6385 127.746 89.5334C126.823 88.9182 124.932 84.6935 118.934 85.6344C117.668 85.8334 116.537 86.548 115.777 87.5793L115.768 87.5703Z" fill="#070E1D"/>
<path d="M129.229 131.5H150.045C150.045 131.5 140.655 149.756 129.229 131.5Z" fill="white"/>
<path d="M134.494 117.361C134.494 115.877 135.045 114.511 135.941 113.471C133.281 113.76 131.201 116.013 131.201 118.754C131.201 121.685 133.58 124.064 136.511 124.064C137.569 124.064 138.555 123.748 139.388 123.214C136.601 122.726 134.485 120.292 134.485 117.361H134.494Z" fill="#D6846A"/>
<path d="M132.757 92.5005C132.757 92.5005 138.546 92.9528 138.483 98.8059C138.42 104.659 135.615 113.597 135.615 113.597L132.748 92.5005H132.757Z" fill="url(#paint3_linear_107_934)"/>
<path d="M174.372 237.878C174.372 237.878 173.648 225.928 172.825 212.883C139.416 225.222 114.637 218.347 102.379 212.819C101.547 225.882 100.833 237.878 100.833 237.878C100.833 237.878 101.411 255.926 104.071 262.765C105.781 267.171 111.136 286.033 114.71 298.879C123.946 300.634 133.472 301.547 143.215 301.547C148.888 301.547 154.478 301.231 159.997 300.634C163.561 287.824 169.333 267.388 171.133 262.765C173.793 255.926 174.372 237.878 174.372 237.878Z" fill="white"/>
<path d="M83.409 288.765C79.7633 279.963 71.9019 238.964 70.961 232.179C70.0112 225.34 72.4809 208.242 72.4809 208.242L88.9545 211.996C89.3345 212.087 89.7325 211.969 89.9949 211.716C90.0039 211.707 90.022 211.689 90.0311 211.68C90.0582 211.653 90.0853 211.625 90.1034 211.589C90.1215 211.562 90.1396 211.535 90.1577 211.508C90.1758 211.481 90.1849 211.454 90.2029 211.426C90.221 211.39 90.2391 211.345 90.2572 211.3C90.2572 211.3 90.2572 211.282 90.2663 211.273C90.2934 211.2 90.3025 211.128 90.3115 211.056C90.3115 211.056 90.3115 211.037 90.3115 211.028C90.3115 210.956 90.3115 210.893 90.3115 210.82C90.3115 210.811 90.3115 210.802 90.3115 210.793C90.3115 210.73 90.2844 210.657 90.2663 210.594C90.2663 210.594 90.2663 210.576 90.2572 210.567C90.2301 210.504 90.2029 210.44 90.1668 210.386C90.1668 210.386 90.1577 210.368 90.1487 210.359C90.1125 210.305 90.0763 210.25 90.0311 210.196L90.013 210.178C89.9677 210.133 89.9135 210.088 89.8592 210.042C89.8592 210.042 89.8501 210.042 89.8411 210.033C89.7778 209.997 89.7144 209.961 89.6511 209.934C89.6511 209.934 89.6511 209.934 89.633 209.934C89.5606 209.907 89.4883 209.889 89.4069 209.87C85.2002 209.183 74.5706 205.202 74.5706 205.202C77.6102 200.643 86.7291 188.484 86.7291 188.484C86.7291 188.484 54.2522 201.213 45.8841 204.253C44.3824 204.795 38.0137 206.532 32.2873 208.07C26.018 209.744 20.8253 214.149 18.1566 220.066C9.01966 240.294 -11.6878 286.639 -12.3301 292.42C-12.2306 292.42 83.4814 288.756 83.4 288.765H83.409Z" fill="#606D89"/>
<path d="M192.509 290.302C196.155 281.5 204.017 240.501 204.957 233.716C205.907 226.877 203.438 209.779 203.438 209.779L186.964 213.534C186.584 213.624 186.186 213.506 185.924 213.253C185.915 213.244 185.896 213.226 185.887 213.217C185.86 213.19 185.833 213.163 185.815 213.126C185.797 213.099 185.779 213.072 185.761 213.045C185.743 213.018 185.734 212.991 185.715 212.964C185.697 212.927 185.679 212.882 185.661 212.837C185.661 212.837 185.661 212.819 185.652 212.81C185.625 212.737 185.616 212.665 185.607 212.593C185.607 212.593 185.607 212.575 185.607 212.566C185.607 212.493 185.607 212.43 185.607 212.358C185.607 212.348 185.607 212.339 185.607 212.33C185.607 212.267 185.634 212.195 185.652 212.131C185.652 212.131 185.652 212.113 185.661 212.104C185.688 212.041 185.715 211.978 185.752 211.923C185.752 211.923 185.761 211.905 185.77 211.896C185.806 211.842 185.842 211.788 185.887 211.733L185.905 211.715C185.951 211.67 186.005 211.625 186.059 211.58C186.059 211.58 186.068 211.58 186.077 211.57C186.141 211.534 186.204 211.498 186.267 211.471C186.267 211.471 186.267 211.471 186.285 211.471C186.358 211.444 186.43 211.426 186.512 211.408C190.718 210.72 201.348 206.74 201.348 206.74C198.308 202.18 189.189 190.022 189.189 190.022C189.189 190.022 221.666 202.75 230.034 205.79C231.536 206.333 237.905 208.069 243.631 209.607C249.9 211.281 255.093 215.687 257.762 221.603C266.899 241.831 287.606 288.176 288.249 293.957C288.149 293.957 192.437 290.293 192.518 290.302H192.509Z" fill="#606D89"/>
<path d="M203.429 209.779L186.919 213.552C186.548 213.633 186.177 213.515 185.915 213.262C185.906 213.253 185.888 213.235 185.879 213.226C185.852 213.199 185.824 213.172 185.806 213.136C185.788 213.108 185.77 213.081 185.752 213.054C185.734 213.027 185.725 213 185.707 212.973C185.707 212.955 185.689 212.946 185.68 212.927C185.671 212.9 185.662 212.873 185.653 212.846V212.828C185.625 212.747 185.616 212.674 185.607 212.611C185.607 212.611 185.607 212.593 185.607 212.584C185.607 212.511 185.607 212.448 185.607 212.376C185.607 212.367 185.607 212.358 185.607 212.348C185.607 212.285 185.634 212.213 185.653 212.149C185.653 212.149 185.653 212.131 185.662 212.122C185.689 212.059 185.716 211.996 185.752 211.941C185.752 211.941 185.761 211.923 185.77 211.914C185.806 211.86 185.843 211.806 185.888 211.751L185.906 211.733C185.951 211.688 186.005 211.643 186.06 211.598C186.06 211.598 186.078 211.598 186.078 211.589C186.132 211.552 186.195 211.516 186.268 211.489C186.268 211.489 186.268 211.489 186.286 211.489C186.358 211.462 186.431 211.435 186.512 211.426C190.719 210.738 201.348 206.758 201.348 206.758C198.309 202.198 189.19 190.04 189.19 190.04C189.19 190.04 172.092 169.758 165.452 164.619V166.908C165.452 168.283 165.759 169.631 166.338 170.87C167.804 174.018 169.604 178.487 170.02 182.26C170.4 185.661 171.386 200.606 172.255 214.366C173.078 227.429 173.802 239.425 173.802 239.425C173.802 239.425 173.223 257.472 170.563 264.312C168.853 268.726 163.507 287.579 159.924 300.425C166.863 299.104 173.63 297.322 180.198 295.097C184.386 293.676 188.484 292.084 192.501 290.32C196.146 281.518 204.008 240.519 204.949 233.734C205.899 226.895 203.429 209.797 203.429 209.797V209.779Z" fill="url(#paint4_linear_107_934)"/>
<path d="M105.347 262.756C102.688 255.917 102.109 237.869 102.109 237.869C102.109 237.869 102.832 225.873 103.656 212.81C104.524 199.06 105.51 184.106 105.89 180.704C106.288 177.122 107.926 172.915 109.346 169.803C109.952 168.473 110.278 167.035 110.278 165.578V163.208C103.52 168.564 86.7206 188.484 86.7206 188.484C86.7206 188.484 77.6017 200.643 74.5621 205.202C74.5621 205.202 85.1917 209.192 89.3984 209.87C89.4798 209.879 89.5522 209.906 89.6245 209.933C89.6245 209.933 89.6245 209.933 89.6426 209.933C89.715 209.961 89.7783 209.997 89.8326 210.033C89.8326 210.033 89.8416 210.033 89.8507 210.042C89.905 210.078 89.9592 210.132 90.0045 210.178C90.0045 210.178 90.0226 210.187 90.0226 210.196C90.0678 210.241 90.113 210.295 90.1402 210.359C90.1402 210.359 90.1492 210.377 90.1583 210.386C90.1945 210.44 90.2216 210.503 90.2487 210.567C90.2487 210.567 90.2487 210.585 90.2578 210.594C90.2759 210.657 90.294 210.72 90.303 210.793C90.303 210.802 90.303 210.811 90.303 210.82C90.303 210.892 90.303 210.956 90.303 211.028C90.303 211.028 90.303 211.046 90.303 211.055C90.303 211.128 90.2759 211.2 90.2578 211.272C90.2578 211.272 90.2578 211.29 90.2578 211.299C90.2578 211.327 90.2397 211.354 90.2306 211.381C90.2306 211.399 90.2125 211.408 90.2035 211.426C90.1854 211.453 90.1764 211.48 90.1583 211.508C90.1402 211.535 90.1221 211.562 90.104 211.589C90.0768 211.625 90.0588 211.652 90.0316 211.679C90.0226 211.688 90.0045 211.707 89.9954 211.716C89.7331 211.969 89.3622 212.086 88.9913 212.005L72.4814 208.233C72.4814 208.233 70.0117 225.331 70.9616 232.17C71.9024 238.955 79.7638 279.953 83.4096 288.756C87.4172 290.52 91.5243 292.112 95.7128 293.532C102.281 295.758 109.047 297.54 115.986 298.86C112.404 286.014 107.057 267.162 105.347 262.747V262.756Z" fill="url(#paint5_linear_107_934)"/>
<path d="M136.549 54.3969C136.549 54.3969 131.094 64.3119 120.69 66.7906C110.278 69.2693 98.3814 81.1655 96.8978 93.0616L98.0286 103.908L92.9173 84.2413C92.9173 84.2413 88.2222 80.6951 88.2222 80.686L92.0488 62.4845C92.7002 59.3815 93.8581 56.4143 95.4865 53.7003C101.222 44.0929 116.212 23.286 136.549 27.1217L141.008 29.1029C141.008 29.1029 141.009 26.1266 152.905 29.6004C164.801 33.0743 182.152 53.8903 185.626 60.8289C187.544 64.6647 188.096 73.0508 188.213 79.7814C188.276 83.7347 185.888 89.0088 184.187 92.2565C183.066 94.4005 182.279 96.6983 181.89 99.0866L181.437 101.846L178.208 95.7032C177.249 90.5196 174.209 85.9511 169.804 83.0472L159.355 76.1809C159.355 76.1809 141.506 67.261 136.558 54.3698L136.549 54.3969Z" fill="#070E1D"/>
<path d="M122.399 101.502C123.509 101.502 124.408 100.052 124.408 98.2632C124.408 96.4745 123.509 95.0245 122.399 95.0245C121.29 95.0245 120.391 96.4745 120.391 98.2632C120.391 100.052 121.29 101.502 122.399 101.502Z" fill="#070E1D"/>
<path d="M151.828 99.9637C152.937 99.9637 153.836 98.5138 153.836 96.7251C153.836 94.9364 152.937 93.4865 151.828 93.4865C150.719 93.4865 149.82 94.9364 149.82 96.7251C149.82 98.5138 150.719 99.9637 151.828 99.9637Z" fill="#070E1D"/>
</g>
<path d="M177.601 61.29C170.707 44.2193 144.074 39.3704 144.074 39.3704H134.494C134.494 39.3704 107.852 44.2283 100.968 61.29C94.0744 78.3608 92.6089 88.0496 92.6089 88.0496L96.5713 86.6112L102.623 68.1292C104.27 63.0993 107.364 58.6756 111.552 55.4369C117.062 51.167 125.556 46.1371 135.67 45.3591H142.926C153.04 46.1462 161.534 51.176 167.043 55.4369C171.223 58.6756 174.326 63.0993 175.972 68.1292L182.015 86.6112L185.978 88.0496C185.978 88.0496 184.503 78.3608 177.619 61.29H177.601Z" fill="#DA6E2E"/>
<path d="M97.105 85.2994C97.105 85.2994 95.2143 105.31 98.2087 124.715L95.9652 124.362C88.5651 123.195 83.1191 116.826 83.1191 109.336V101.031C83.1191 94.6354 87.1267 88.918 93.1427 86.7378L97.105 85.2994Z" fill="#DA6E2E"/>
<path d="M139.388 139.877L139.162 137.86L174.416 133.834C179.383 133.264 183.526 129.627 184.729 124.769L186.647 117.016L188.619 117.505L186.701 125.258C185.299 130.93 180.459 135.191 174.652 135.851L139.397 139.877H139.388Z" fill="#DA6E2E"/>
<path d="M181.183 85.2994C181.183 85.2994 183.074 105.31 180.08 124.715L182.323 124.362C189.723 123.195 195.169 116.826 195.169 109.336V101.031C195.169 94.6354 191.162 88.918 185.146 86.7378L181.183 85.2994Z" fill="#DA6E2E"/>
<path d="M141.396 133.807H133.327C130.629 133.807 128.442 135.994 128.442 138.692V138.701C128.442 141.399 130.629 143.586 133.327 143.586H141.396C144.094 143.586 146.282 141.399 146.282 138.701V138.692C146.282 135.994 144.094 133.807 141.396 133.807Z" fill="#0E1627"/>
<path d="M95.7121 88.9362L94.8708 89.2709C94.8708 89.2709 93.3148 105.998 95.9654 124.371C95.9654 124.371 97.4762 125.764 100.308 124.815C100.543 124.733 100.76 124.625 100.968 124.489L101.809 123.964C101.809 123.964 97.3314 104.894 97.5033 89.5694C97.1414 88.9362 96.3815 88.6738 95.7121 88.9452V88.9362Z" fill="url(#paint6_linear_107_934)"/>
<path d="M183.029 88.9362L183.87 89.2709C183.87 89.2709 185.426 105.998 182.776 124.371C182.776 124.371 181.265 125.764 178.433 124.815C178.198 124.733 177.981 124.625 177.773 124.489L176.932 123.964C176.932 123.964 181.41 104.894 181.238 89.5694C181.6 88.9362 182.36 88.6738 183.029 88.9452V88.9362Z" fill="url(#paint7_linear_107_934)"/>
<defs>
<linearGradient id="paint0_linear_107_934" x1="11.5523" y1="-97.5304" x2="179.112" y2="281.527" gradientUnits="userSpaceOnUse">
<stop offset="0.2" stop-color="white"/>
<stop offset="0.6" stop-color="#B8E8F8"/>
<stop offset="1" stop-color="#8FCDF0"/>
</linearGradient>
<linearGradient id="paint1_linear_107_934" x1="180.017" y1="94.2467" x2="180.017" y2="125.792" gradientUnits="userSpaceOnUse">
<stop stop-color="#D68369"/>
<stop offset="1" stop-color="#F4BC9B"/>
</linearGradient>
<linearGradient id="paint2_linear_107_934" x1="97.5941" y1="87.9236" x2="97.5941" y2="120.916" gradientUnits="userSpaceOnUse">
<stop stop-color="#D68369"/>
<stop offset="1" stop-color="#F4BC9B"/>
</linearGradient>
<linearGradient id="paint3_linear_107_934" x1="136.99" y1="82.5132" x2="134.159" y2="110.648" gradientUnits="userSpaceOnUse">
<stop stop-color="#D68369"/>
<stop offset="1" stop-color="#ECBA9B"/>
</linearGradient>
<linearGradient id="paint4_linear_107_934" x1="182.541" y1="345.296" x2="182.541" y2="125.991" gradientUnits="userSpaceOnUse">
<stop offset="0.2" stop-color="#070E1D"/>
<stop offset="1" stop-color="#606D89"/>
</linearGradient>
<linearGradient id="paint5_linear_107_934" x1="93.3788" y1="345.296" x2="93.3788" y2="125.991" gradientUnits="userSpaceOnUse">
<stop offset="0.2" stop-color="#070E1D"/>
<stop offset="1" stop-color="#606D89"/>
</linearGradient>
<linearGradient id="paint6_linear_107_934" x1="61.2359" y1="111.733" x2="109.001" y2="105.473" gradientUnits="userSpaceOnUse">
<stop offset="0.2" stop-color="#070E1D"/>
<stop offset="1" stop-color="#606D89"/>
</linearGradient>
<linearGradient id="paint7_linear_107_934" x1="217.505" y1="111.733" x2="169.74" y2="105.473" gradientUnits="userSpaceOnUse">
<stop offset="0.2" stop-color="#070E1D"/>
<stop offset="1" stop-color="#606D89"/>
</linearGradient>
</defs>
</svg>
